<?xml version="1.0" encoding="utf-8"?>
<!-- Generator: Adobe Illustrator 17.1.0, SVG Export Plug-In . SVG Version: 6.00 Build 0)  -->
<!DOCTYPE svg PUBLIC "-//W3C//DTD SVG 1.1//EN" "http://www.w3.org/Graphics/SVG/1.1/DTD/svg11.dtd">
<svg version="1.1" id="Layer_1" xmlns="http://www.w3.org/2000/svg" xmlns:xlink="http://www.w3.org/1999/xlink" x="0px" y="0px"
	 viewBox="0 0 291.667 384" enable-background="new 0 0 291.667 384" xml:space="preserve">
<g>
	<path class="corner" fill="#FFFFFF" d="M0,27.75v-5c12.544,0,22.75-10.206,22.75-22.75h5C27.75,15.301,15.301,27.75,0,27.75z"/>
</g>
<g>
	<path class="corner" fill="#FFFFFF" d="M27.75,384h-5c0-12.544-10.206-22.75-22.75-22.75l0-5C15.301,356.25,27.75,368.699,27.75,384z"/>
</g>
<g>
	<path class="corner" fill="#FFFFFF" d="M291.667,356.25l0,5c-12.544,0-22.75,10.206-22.75,22.75l-5,0
		C263.917,368.7,276.366,356.251,291.667,356.25z"/>
</g>
<g>
	<path class="corner" fill="#FFFFFF" d="M263.916,0.075l5,0c0,12.544,10.206,22.75,22.751,22.75l0,5C276.366,27.825,263.917,15.376,263.916,0.075z"
		/>
</g>
</svg>
