<svg version="1.1" id="Layer_1" xmlns="http://www.w3.org/2000/svg" xmlns:xlink="http://www.w3.org/1999/xlink" x="0px" y="0px" viewBox="0 0 639.565 841.89" enable-background="new 0 0 639.565 841.89" xml:space="preserve">
<g>
	<path class="corner" fill="#FFFFFF" d="M0,60.84V49.878c27.502,0,49.878-22.376,49.878-49.878H60.84C60.84,33.544,33.544,60.949,0,60.84z"/>
</g>
<g>
	<path class="corner" fill="#FFFFFF" d="M60.84,841.89H49.878c0-27.502-22.376-49.878-49.878-49.878V781.05c33.546-0.11,60.949,27.296,60.949,60.84
		H60.84z"/>
</g>
<g>
	<path class="corner" fill="#FFFFFF" d="M639.457,781.05v10.962c-27.502,0-49.878,22.376-49.878,49.878h-10.962c0-33.544,27.368-60.73,60.912-60.84
		H639.457z"/>
</g>
<g>
	<path class="corner" fill="#FFFFFF" d="M578.615,0.164h10.962c0,27.405,22.363,49.987,49.987,49.878v10.962
		c-33.654-0.055-60.984-27.241-60.984-60.84H578.615z"/>
</g>
</svg>
