<?xml version="1.0" encoding="utf-8"?>
<!-- Generator: Adobe Illustrator 17.1.0, SVG Export Plug-In . SVG Version: 6.00 Build 0)  -->
<!DOCTYPE svg PUBLIC "-//W3C//DTD SVG 1.1//EN" "http://www.w3.org/Graphics/SVG/1.1/DTD/svg11.dtd">
<svg version="1.1" id="Layer_1" xmlns="http://www.w3.org/2000/svg" xmlns:xlink="http://www.w3.org/1999/xlink" x="0px" y="0px"
	 width="288.67px" height="380.05px" viewBox="0 0 288.67 380.05" enable-background="new 0 0 288.67 380.05" xml:space="preserve">
<path fill="#FFFFFF" d="M0,27.46v-4.95c12.42,0,22.52-10.1,22.52-22.52h4.95C27.46,15.14,15.14,27.46,0,27.46z"/>
<path fill="#FFFFFF" d="M27.46,380.05h-4.95c0-12.42-10.1-22.52-22.52-22.52l0-4.95C15.14,352.59,27.46,364.91,27.46,380.05z"/>
<path fill="#FFFFFF" d="M288.67,352.59l0,4.95c-12.42,0-22.52,10.1-22.52,22.52l-4.95,0C261.2,364.91,273.52,352.59,288.67,352.59z"
	/>
<path fill="#FFFFFF" d="M261.2,0.07l4.95,0c0,12.42,10.1,22.52,22.52,22.52l0,4.95C273.52,27.54,261.2,15.22,261.2,0.07z"/>
</svg>
